<svg width="208" height="31" viewBox="0 0 208 31" fill="none" xmlns="http://www.w3.org/2000/svg">
<path d="M8.4 24.32C7.39733 24.32 6.42667 24.0853 5.488 23.616C4.57067 23.1467 3.856 22.5173 3.344 21.728L3.536 20.8V30.368H0.592V10.56H3.152L3.568 13.952L3.248 13.024C3.888 12.2133 4.69867 11.5413 5.68 11.008C6.66133 10.4747 7.76 10.208 8.976 10.208C10.2133 10.208 11.3227 10.5067 12.304 11.104C13.3067 11.7013 14.096 12.5333 14.672 13.6C15.248 14.6667 15.536 15.9147 15.536 17.344C15.536 18.7733 15.2267 20.0107 14.608 21.056C13.9893 22.1013 13.136 22.912 12.048 23.488C10.9813 24.0427 9.76533 24.32 8.4 24.32ZM7.824 21.952C8.67733 21.952 9.456 21.76 10.16 21.376C10.8853 20.9707 11.4613 20.4267 11.888 19.744C12.3147 19.04 12.528 18.2507 12.528 17.376C12.528 16.48 12.3253 15.6907 11.92 15.008C11.5147 14.304 10.9707 13.7493 10.288 13.344C9.62667 12.9387 8.88 12.736 8.048 12.736C7.28 12.736 6.58667 12.8853 5.968 13.184C5.34933 13.4827 4.83733 13.8987 4.432 14.432C4.02667 14.944 3.73867 15.5413 3.568 16.224V18.432C3.67467 19.1147 3.93067 19.7227 4.336 20.256C4.74133 20.7893 5.24267 21.2053 5.84 21.504C6.45867 21.8027 7.12 21.952 7.824 21.952ZM25.7048 24.32C24.1901 24.32 22.8888 24.0213 21.8008 23.424C20.7128 22.8053 19.8701 21.9733 19.2728 20.928C18.6968 19.8613 18.4088 18.6453 18.4088 17.28C18.4088 15.9787 18.7394 14.7947 19.4008 13.728C20.0621 12.6613 20.9474 11.808 22.0568 11.168C23.1661 10.528 24.4034 10.208 25.7688 10.208C27.5181 10.208 28.9688 10.72 30.1208 11.744C31.2728 12.768 32.0514 14.176 32.4568 15.968L21.5448 19.808L20.8408 18.048L29.8008 14.784L29.1608 15.2C28.9048 14.496 28.4781 13.888 27.8808 13.376C27.2834 12.8427 26.5048 12.576 25.5448 12.576C24.7341 12.576 24.0088 12.7787 23.3688 13.184C22.7288 13.568 22.2274 14.1013 21.8648 14.784C21.5021 15.4667 21.3208 16.2453 21.3208 17.12C21.3208 18.0373 21.5128 18.848 21.8968 19.552C22.2808 20.2347 22.8034 20.7787 23.4648 21.184C24.1474 21.568 24.9154 21.76 25.7688 21.76C26.3448 21.76 26.8994 21.6533 27.4328 21.44C27.9874 21.2267 28.4994 20.9493 28.9688 20.608L30.3448 22.816C29.6834 23.264 28.9368 23.6267 28.1048 23.904C27.2941 24.1813 26.4941 24.32 25.7048 24.32ZM43.9938 24.32C42.9911 24.32 42.0204 24.0853 41.0818 23.616C40.1644 23.1467 39.4498 22.5173 38.9378 21.728L39.1298 20.8V30.368H36.1858V10.56H38.7458L39.1618 13.952L38.8418 13.024C39.4818 12.2133 40.2924 11.5413 41.2738 11.008C42.2551 10.4747 43.3538 10.208 44.5698 10.208C45.8071 10.208 46.9164 10.5067 47.8978 11.104C48.9004 11.7013 49.6898 12.5333 50.2658 13.6C50.8418 14.6667 51.1298 15.9147 51.1298 17.344C51.1298 18.7733 50.8204 20.0107 50.2018 21.056C49.5831 22.1013 48.7298 22.912 47.6418 23.488C46.5751 24.0427 45.3591 24.32 43.9938 24.32ZM43.4178 21.952C44.2711 21.952 45.0498 21.76 45.7538 21.376C46.4791 20.9707 47.0551 20.4267 47.4818 19.744C47.9084 19.04 48.1218 18.2507 48.1218 17.376C48.1218 16.48 47.9191 15.6907 47.5138 15.008C47.1084 14.304 46.5644 13.7493 45.8818 13.344C45.2204 12.9387 44.4738 12.736 43.6418 12.736C42.8738 12.736 42.1804 12.8853 41.5618 13.184C40.9431 13.4827 40.4311 13.8987 40.0258 14.432C39.6204 14.944 39.3324 15.5413 39.1618 16.224V18.432C39.2684 19.1147 39.5244 19.7227 39.9298 20.256C40.3351 20.7893 40.8364 21.2053 41.4338 21.504C42.0524 21.8027 42.7138 21.952 43.4178 21.952ZM62.9625 24.32C61.9598 24.32 60.9892 24.0853 60.0505 23.616C59.1332 23.1467 58.4185 22.5173 57.9065 21.728L58.0985 20.8V30.368H55.1545V10.56H57.7145L58.1305 13.952L57.8105 13.024C58.4505 12.2133 59.2612 11.5413 60.2425 11.008C61.2238 10.4747 62.3225 10.208 63.5385 10.208C64.7758 10.208 65.8852 10.5067 66.8665 11.104C67.8692 11.7013 68.6585 12.5333 69.2345 13.6C69.8105 14.6667 70.0985 15.9147 70.0985 17.344C70.0985 18.7733 69.7892 20.0107 69.1705 21.056C68.5518 22.1013 67.6985 22.912 66.6105 23.488C65.5438 24.0427 64.3278 24.32 62.9625 24.32ZM62.3865 21.952C63.2398 21.952 64.0185 21.76 64.7225 21.376C65.4478 20.9707 66.0238 20.4267 66.4505 19.744C66.8772 19.04 67.0905 18.2507 67.0905 17.376C67.0905 16.48 66.8878 15.6907 66.4825 15.008C66.0772 14.304 65.5332 13.7493 64.8505 13.344C64.1892 12.9387 63.4425 12.736 62.6105 12.736C61.8425 12.736 61.1492 12.8853 60.5305 13.184C59.9118 13.4827 59.3998 13.8987 58.9945 14.432C58.5892 14.944 58.3012 15.5413 58.1305 16.224V18.432C58.2372 19.1147 58.4932 19.7227 58.8985 20.256C59.3038 20.7893 59.8052 21.2053 60.4025 21.504C61.0212 21.8027 61.6825 21.952 62.3865 21.952ZM80.2673 24.32C78.7526 24.32 77.4513 24.0213 76.3633 23.424C75.2753 22.8053 74.4326 21.9733 73.8353 20.928C73.2593 19.8613 72.9713 18.6453 72.9713 17.28C72.9713 15.9787 73.3019 14.7947 73.9633 13.728C74.6246 12.6613 75.5099 11.808 76.6193 11.168C77.7286 10.528 78.9659 10.208 80.3313 10.208C82.0806 10.208 83.5313 10.72 84.6833 11.744C85.8353 12.768 86.6139 14.176 87.0193 15.968L76.1073 19.808L75.4033 18.048L84.3633 14.784L83.7233 15.2C83.4673 14.496 83.0406 13.888 82.4433 13.376C81.8459 12.8427 81.0673 12.576 80.1073 12.576C79.2966 12.576 78.5713 12.7787 77.9313 13.184C77.2913 13.568 76.7899 14.1013 76.4273 14.784C76.0646 15.4667 75.8833 16.2453 75.8833 17.12C75.8833 18.0373 76.0753 18.848 76.4593 19.552C76.8433 20.2347 77.3659 20.7787 78.0273 21.184C78.7099 21.568 79.4779 21.76 80.3313 21.76C80.9073 21.76 81.4619 21.6533 81.9953 21.44C82.5499 21.2267 83.0619 20.9493 83.5313 20.608L84.9073 22.816C84.2459 23.264 83.4993 23.6267 82.6673 23.904C81.8566 24.1813 81.0566 24.32 80.2673 24.32ZM93.4043 10.752L93.6923 14.592L93.5323 14.08C93.8736 13.2693 94.3643 12.5867 95.0043 12.032C95.6656 11.456 96.3483 11.0187 97.0523 10.72C97.7776 10.4 98.4069 10.24 98.9403 10.24L98.7803 13.184C97.7776 13.12 96.8923 13.312 96.1243 13.76C95.3776 14.208 94.7803 14.8053 94.3323 15.552C93.9056 16.2987 93.6923 17.0987 93.6923 17.952V24H90.7483V10.752H93.4043ZM105.436 10.752L105.692 13.728L105.564 13.472C106.054 12.4693 106.748 11.68 107.644 11.104C108.561 10.528 109.606 10.24 110.78 10.24C111.526 10.24 112.188 10.3573 112.764 10.592C113.34 10.8267 113.809 11.168 114.172 11.616C114.556 12.0427 114.801 12.576 114.908 13.216L114.748 13.312C115.26 12.352 115.964 11.6053 116.86 11.072C117.777 10.5173 118.737 10.24 119.74 10.24C121.041 10.24 122.065 10.6133 122.812 11.36C123.58 12.0853 123.974 13.0347 123.996 14.208V24H121.02V15.264C120.998 14.5813 120.828 14.016 120.508 13.568C120.209 13.0987 119.676 12.8427 118.908 12.8C118.14 12.8 117.446 13.0347 116.828 13.504C116.23 13.9733 115.761 14.5813 115.42 15.328C115.078 16.0533 114.897 16.8427 114.876 17.696V24H111.9V15.264C111.878 14.5813 111.697 14.016 111.356 13.568C111.036 13.0987 110.492 12.8427 109.724 12.8C108.934 12.8 108.241 13.0347 107.644 13.504C107.046 13.9733 106.577 14.5813 106.236 15.328C105.916 16.0747 105.756 16.8747 105.756 17.728V24H102.78V10.752H105.436ZM129.186 10.752H132.162V24H129.186V10.752ZM128.962 5.952C128.962 5.48267 129.143 5.088 129.506 4.768C129.89 4.448 130.306 4.288 130.754 4.288C131.202 4.288 131.596 4.448 131.938 4.768C132.3 5.088 132.482 5.48267 132.482 5.952C132.482 6.44267 132.3 6.848 131.938 7.168C131.596 7.46667 131.202 7.616 130.754 7.616C130.306 7.616 129.89 7.456 129.506 7.136C129.143 6.816 128.962 6.42133 128.962 5.952ZM139.967 10.752L140.223 13.984L140.095 13.472C140.521 12.4907 141.215 11.712 142.175 11.136C143.135 10.5387 144.244 10.24 145.503 10.24C146.761 10.24 147.785 10.6133 148.575 11.36C149.385 12.0853 149.801 13.0347 149.823 14.208V24H146.815V15.264C146.793 14.5387 146.58 13.952 146.175 13.504C145.791 13.0347 145.183 12.8 144.351 12.8C143.583 12.8 142.889 13.0133 142.271 13.44C141.652 13.8667 141.161 14.4533 140.799 15.2C140.457 15.9467 140.287 16.8107 140.287 17.792V24H137.311V10.752H139.967ZM156.278 4.928H159.254V10.816H162.902V13.152H159.254V24H156.278V13.152H153.846V10.816H156.278V4.928ZM165.794 12.448C165.794 10.848 166.093 9.344 166.69 7.936C167.309 6.50667 168.162 5.248 169.25 4.16C170.338 3.05067 171.586 2.18667 172.994 1.568C174.424 0.927999 175.96 0.608 177.602 0.608C179.224 0.608 180.738 0.927999 182.146 1.568C183.576 2.18667 184.834 3.05067 185.922 4.16C187.032 5.248 187.896 6.50667 188.514 7.936C189.133 9.344 189.442 10.848 189.442 12.448C189.442 14.0907 189.133 15.6267 188.514 17.056C187.896 18.4853 187.032 19.744 185.922 20.832C184.834 21.8987 183.576 22.7413 182.146 23.36C180.738 23.9573 179.224 24.256 177.602 24.256C175.96 24.256 174.424 23.9573 172.994 23.36C171.586 22.7627 170.338 21.9307 169.25 20.864C168.162 19.7973 167.309 18.5493 166.69 17.12C166.093 15.6907 165.794 14.1333 165.794 12.448ZM168.994 12.48C168.994 13.696 169.218 14.8373 169.666 15.904C170.114 16.9493 170.733 17.8773 171.522 18.688C172.312 19.4987 173.229 20.1387 174.274 20.608C175.32 21.056 176.45 21.28 177.666 21.28C178.861 21.28 179.981 21.056 181.026 20.608C182.072 20.1387 182.978 19.4987 183.746 18.688C184.514 17.8773 185.122 16.9493 185.57 15.904C186.018 14.8373 186.242 13.6853 186.242 12.448C186.242 11.232 186.018 10.0907 185.57 9.024C185.122 7.936 184.504 6.98667 183.714 6.176C182.925 5.36533 182.008 4.736 180.962 4.288C179.917 3.81867 178.797 3.584 177.602 3.584C176.386 3.584 175.256 3.81867 174.21 4.288C173.165 4.75733 172.248 5.39733 171.458 6.208C170.669 7.01867 170.061 7.968 169.634 9.056C169.208 10.1227 168.994 11.264 168.994 12.48ZM192.007 0.863998H207.367V3.84H201.159V24H198.055V3.84H192.007V0.863998Z" fill="white"/>
</svg>
