<svg width="648" height="358" viewBox="0 0 648 358" fill="none" xmlns="http://www.w3.org/2000/svg">
<path d="M50 358C22.3858 358 1.24846e-05 335.614 1.12776e-05 308L0 50C-1.20704e-06 22.3858 22.3858 2.51609e-05 50 2.39538e-05L598 0C625.614 -1.20706e-06 648 22.3858 648 50V308C648 335.614 625.614 358 598 358L50 358Z" fill="#A1EFD5"/>
<path d="M550.31 311.633C550.31 317.298 443.493 321.891 311.729 321.891C179.965 321.891 73.1486 317.298 73.1486 311.633C73.1486 305.968 179.965 301.376 311.729 301.376C443.493 301.376 550.31 305.968 550.31 311.633Z" fill="black" fill-opacity="0.08"/>
<path d="M207.996 279V138.453C207.996 131.506 210.407 124.774 214.818 119.407L238.199 90.9537C243.897 84.0189 252.401 80 261.377 80H347.616C356.591 80 365.096 84.0189 370.794 90.9537L394.175 119.407C398.585 124.774 400.996 131.506 400.996 138.453V279C400.996 295.569 387.565 309 370.996 309H237.996C221.428 309 207.996 295.568 207.996 279Z" fill="white"/>
<path d="M256.543 118.707L244.128 92.144C242.821 89.3474 243.849 86.0154 246.505 84.4417L250.749 81.9265C251.623 81.4085 252.615 81.121 253.63 81.0909L303.369 79.6172L352.967 80.7276C353.83 80.7469 354.678 80.952 355.454 81.329L362.114 84.5636C365.119 86.0231 366.353 89.6559 364.859 92.6439L351.756 118.85C350.739 120.883 348.662 122.167 346.389 122.167H261.979C259.649 122.167 257.53 120.818 256.543 118.707Z" fill="#FBFBFB"/>
<path d="M226.629 155C226.629 143.954 235.583 135 246.629 135H363.15C374.196 135 383.15 143.954 383.15 155V271.521C383.15 282.567 374.196 291.521 363.15 291.521H246.629C235.583 291.521 226.629 282.567 226.629 271.521V155Z" fill="url(#paint0_linear_810_408)"/>
<path d="M478.727 247.27C475.55 244.791 474.172 240.647 475.231 236.758L480.176 218.606C480.881 216.02 482.593 213.826 484.93 212.514L501.336 203.305C504.851 201.333 509.206 201.662 512.383 204.142L550.122 233.592C554.476 236.99 555.252 243.274 551.854 247.628L530.502 274.989C527.105 279.343 520.821 280.118 516.467 276.721L478.727 247.27Z" fill="white"/>
<path d="M508.114 225.869C506.151 228.385 505.56 231.443 506.427 234.19C503.552 234.017 500.729 235.333 498.765 237.849C497.28 239.756 496.6 242.165 496.875 244.548C497.149 246.93 498.355 249.091 500.229 250.556C503.67 253.242 508.954 253.857 515.932 252.382C519.122 251.701 522.244 250.712 525.253 249.429C525.39 249.367 525.51 249.273 525.603 249.154C525.696 249.035 525.758 248.896 525.784 248.748C526.297 245.517 526.498 242.248 526.383 238.988C526.119 231.862 524.238 226.886 520.796 224.2C518.919 222.739 516.53 222.094 514.153 222.407C511.775 222.72 509.603 223.965 508.114 225.869Z" fill="#4EDFCC" fill-opacity="0.8"/>
<path d="M175 150.29C127.477 217.829 152.817 278.237 176.526 306.242C179.808 310.119 185.6 310.348 189.278 306.845C240.961 257.614 215.064 187.925 189.929 150.379C186.357 145.042 178.696 145.038 175 150.29Z" fill="url(#paint1_linear_810_408)"/>
<path d="M68.0676 201.043C82.3532 282.368 142.979 307.258 179.545 310.362C184.618 310.793 188.887 306.849 189.001 301.759C190.603 230.453 123.022 199.391 78.6971 190.539C72.3871 189.279 66.9543 194.706 68.0676 201.043Z" fill="url(#paint2_linear_810_408)"/>
<path d="M279.059 94.4483C279.059 93.8189 279.569 93.3086 280.199 93.3086H324.268C324.897 93.3086 325.407 93.8189 325.407 94.4483C325.407 95.0778 324.897 95.588 324.268 95.588H280.199C279.569 95.588 279.059 95.0778 279.059 94.4483Z" fill="#555555"/>
<defs>
<linearGradient id="paint0_linear_810_408" x1="324" y1="358" x2="324" y2="0" gradientUnits="userSpaceOnUse">
<stop stop-color="#A1EFD5"/>
<stop offset="1" stop-color="#A1EFD5" stop-opacity="0"/>
</linearGradient>
<linearGradient id="paint1_linear_810_408" x1="324" y1="0" x2="324" y2="358" gradientUnits="userSpaceOnUse">
<stop stop-color="#4EDFCC"/>
<stop offset="1" stop-color="white"/>
</linearGradient>
<linearGradient id="paint2_linear_810_408" x1="324" y1="0" x2="324" y2="358" gradientUnits="userSpaceOnUse">
<stop stop-color="#4EDFCC"/>
<stop offset="1" stop-color="white"/>
</linearGradient>
</defs>
</svg>
