<svg width="516" height="288" viewBox="0 0 516 288" fill="none" xmlns="http://www.w3.org/2000/svg">
<path d="M508.309 264.632C508.309 270.297 401.493 274.89 269.729 274.89C137.965 274.89 31.1484 270.297 31.1484 264.632C31.1484 258.967 137.965 254.375 269.729 254.375C401.493 254.375 508.309 258.967 508.309 264.632Z" fill="black" fill-opacity="0.08"/>
<path d="M166 232V91.4531C166 84.506 168.411 77.7742 172.822 72.4068L196.202 43.9537C201.901 37.0189 210.405 33 219.381 33H305.619C314.595 33 323.099 37.0189 328.798 43.9537L352.178 72.4068C356.589 77.7742 359 84.506 359 91.4531V232C359 248.569 345.569 262 329 262H196C179.431 262 166 248.569 166 232Z" fill="white"/>
<path d="M214.547 71.7071L202.132 45.144C200.825 42.3474 201.853 39.0155 204.509 37.4417L208.753 34.9265C209.627 34.4085 210.618 34.121 211.634 34.0909L261.373 32.6172L310.971 33.7276C311.834 33.7469 312.682 33.9521 313.458 34.329L320.117 37.5636C323.122 39.0231 324.356 42.6559 322.862 45.6439L309.759 71.8499C308.743 73.8826 306.666 75.1666 304.393 75.1666H219.983C217.653 75.1666 215.534 73.8178 214.547 71.7071Z" fill="#FBFBFB"/>
<rect x="184.633" y="88" width="156.521" height="156.521" rx="20" fill="url(#paint0_linear_885_371)"/>
<path d="M256.812 187.023L258.025 188.063C258.978 188.879 260.1 189.474 261.31 189.804L261.616 189.888C262.946 190.25 264.351 190.233 265.671 189.837V189.837C266.839 189.486 267.901 188.852 268.763 187.99L269.729 187.023" stroke="#555555" stroke-width="3"/>
<path d="M240.102 174.701L238.889 173.662C237.936 172.845 236.814 172.25 235.604 171.92L235.298 171.837C233.968 171.474 232.563 171.492 231.243 171.888V171.888C230.075 172.238 229.013 172.873 228.151 173.735L227.185 174.701" stroke="#555555" stroke-width="3"/>
<path d="M296.328 174.701L295.116 173.662C294.163 172.845 293.041 172.25 291.83 171.92L291.525 171.837C290.195 171.474 288.79 171.492 287.47 171.888V171.888C286.302 172.238 285.24 172.873 284.378 173.735L283.411 174.701" stroke="#555555" stroke-width="3"/>
<path d="M436.731 200.271C433.554 197.791 432.175 193.647 433.235 189.758L438.18 171.606C438.884 169.021 440.597 166.826 442.934 165.514L459.34 156.305C462.854 154.333 467.209 154.663 470.387 157.142L508.126 186.592C512.48 189.99 513.255 196.274 509.858 200.628L488.506 227.989C485.108 232.343 478.824 233.119 474.47 229.721L436.731 200.271Z" fill="white"/>
<path d="M466.114 178.869C464.151 181.385 463.56 184.443 464.427 187.19C461.552 187.017 458.729 188.333 456.766 190.849C455.281 192.756 454.601 195.165 454.875 197.548C455.149 199.93 456.355 202.091 458.229 203.556C461.671 206.242 466.954 206.857 473.932 205.382C477.122 204.701 480.244 203.712 483.254 202.429C483.39 202.367 483.511 202.273 483.603 202.154C483.696 202.035 483.758 201.896 483.785 201.748C484.297 198.517 484.498 195.248 484.384 191.988C484.119 184.862 482.238 179.886 478.796 177.2C476.919 175.739 474.53 175.094 472.153 175.407C469.775 175.72 467.604 176.965 466.114 178.869Z" fill="#4EDFCC" fill-opacity="0.8"/>
<g filter="url(#filter0_d_885_371)">
<path d="M133 103.29C85.4775 170.828 110.817 231.237 134.526 259.242C137.808 263.119 143.6 263.348 147.278 259.845C198.961 210.614 173.065 140.924 147.93 103.379C144.357 98.0419 136.696 98.038 133 103.29Z" fill="url(#paint1_linear_885_371)"/>
<path d="M133 103.29C85.4775 170.828 110.817 231.237 134.526 259.242C137.808 263.119 143.6 263.348 147.278 259.845C198.961 210.614 173.065 140.924 147.93 103.379C144.357 98.0419 136.696 98.038 133 103.29Z" stroke="white" stroke-width="3"/>
</g>
<path d="M27.3516 145.13L143.982 261.761M141.323 97.8555V219.211" stroke="white" stroke-width="3"/>
<g filter="url(#filter1_d_885_371)">
<path d="M26.0712 154.044C40.3568 235.368 100.982 260.259 137.548 263.363C142.621 263.794 146.89 259.85 147.005 254.759C148.607 183.454 81.0253 152.392 36.7007 143.54C30.3907 142.28 24.958 147.706 26.0712 154.044Z" fill="url(#paint2_linear_885_371)"/>
<path d="M26.0712 154.044C40.3568 235.368 100.982 260.259 137.548 263.363C142.621 263.794 146.89 259.85 147.005 254.759C148.607 183.454 81.0253 152.392 36.7007 143.54C30.3907 142.28 24.958 147.706 26.0712 154.044Z" stroke="white" stroke-width="3"/>
</g>
<path d="M144.74 262.355L28.1094 144.584" stroke="white" stroke-width="3"/>
<path d="M132.969 251.336L139.807 214.865" stroke="white"/>
<path d="M117.774 235.381L126.511 192.832M100.298 217.526L108.276 175.356M87.3812 204.229L92.3199 164.339M73.7046 190.552L77.5036 157.121M63.0672 180.295L64.5868 151.422M49.3906 165.479L50.5303 147.623" stroke="white"/>
<path d="M132.588 250.196L113.213 258.934M117.392 235L83.5804 245.258M99.5365 217.525L61.9258 228.542M86.6197 204.228L49.0091 211.826M72.9431 189.792L39.1315 194.73M62.6857 178.774H32.6731M47.8694 164.338H27.7344" stroke="white"/>
<path d="M141.706 116.469L131.828 106.592" stroke="white"/>
<path d="M141.321 130.526L126.125 115.33" stroke="white"/>
<path d="M141.322 148.003L120.047 126.729" stroke="white"/>
<path d="M141.322 165.478L113.969 138.125" stroke="white"/>
<path d="M141.322 182.953L110.93 152.561" stroke="white"/>
<path d="M141.324 200.43L107.133 166.238" stroke="white"/>
<path d="M141.328 115.331L150.445 106.213" stroke="white"/>
<path d="M141.321 129.766L155.758 115.33" stroke="white"/>
<path d="M141.321 147.243L161.836 126.729" stroke="white"/>
<path d="M142.085 164.718L166.398 139.645" stroke="white"/>
<path d="M141.326 182.193L171.719 151.801" stroke="white"/>
<path d="M142.086 199.67L174.758 166.238" stroke="white"/>
<path d="M142.848 220.184L177.039 185.992" stroke="white"/>
<path d="M145.883 240.699L175.516 211.066" stroke="white"/>
<path d="M259.852 50.1655C260.029 34.8789 271.711 24.4419 283.69 16.3349C289.419 12.458 295.888 9.76855 302.429 7.58821C308.029 5.72142 313.82 3.67086 319.744 3.31862C328.4 2.80395 337.302 3.00215 345.955 3.28897C357.681 3.67769 366.988 7.05073 376.82 13.281C385.235 18.613 389.403 26.9188 393.454 35.8742C397.297 44.3693 397.546 53.0642 397.546 62.2033C397.546 75.0574 395.442 87.6495 391.408 99.8587C389.087 106.886 387.658 114.148 386.457 121.444C385.476 127.403 384.107 134.675 386.812 140.36C391.38 149.958 399.16 155.433 408.249 160.107C412.818 162.457 417.361 164.064 422.214 165.681C427.611 167.48 433.049 167.808 438.64 168.646" stroke="white" stroke-width="5" stroke-linecap="round"/>
<rect x="237.062" y="46.3086" width="46.3484" height="2.27943" rx="1.13972" fill="#555555"/>
<defs>
<filter id="filter0_d_885_371" x="100.656" y="93.8633" width="81.9922" height="173.957" filterUnits="userSpaceOnUse" color-interpolation-filters="sRGB">
<feFlood flood-opacity="0" result="BackgroundImageFix"/>
<feColorMatrix in="SourceAlpha" type="matrix" values="0 0 0 0 0 0 0 0 0 0 0 0 0 0 0 0 0 0 127 0" result="hardAlpha"/>
<feOffset/>
<feGaussianBlur stdDeviation="2"/>
<feComposite in2="hardAlpha" operator="out"/>
<feColorMatrix type="matrix" values="0 0 0 0 0 0 0 0 0 0 0 0 0 0 0 0 0 0 0.25 0"/>
<feBlend mode="normal" in2="BackgroundImageFix" result="effect1_dropShadow_885_371"/>
<feBlend mode="normal" in="SourceGraphic" in2="effect1_dropShadow_885_371" result="shape"/>
</filter>
<filter id="filter1_d_885_371" x="20.4219" y="137.855" width="132.109" height="131.041" filterUnits="userSpaceOnUse" color-interpolation-filters="sRGB">
<feFlood flood-opacity="0" result="BackgroundImageFix"/>
<feColorMatrix in="SourceAlpha" type="matrix" values="0 0 0 0 0 0 0 0 0 0 0 0 0 0 0 0 0 0 127 0" result="hardAlpha"/>
<feOffset/>
<feGaussianBlur stdDeviation="2"/>
<feComposite in2="hardAlpha" operator="out"/>
<feColorMatrix type="matrix" values="0 0 0 0 0 0 0 0 0 0 0 0 0 0 0 0 0 0 0.25 0"/>
<feBlend mode="normal" in2="BackgroundImageFix" result="effect1_dropShadow_885_371"/>
<feBlend mode="normal" in="SourceGraphic" in2="effect1_dropShadow_885_371" result="shape"/>
</filter>
<linearGradient id="paint0_linear_885_371" x1="262.893" y1="244.521" x2="262.893" y2="88" gradientUnits="userSpaceOnUse">
<stop stop-color="#A1EFD5"/>
<stop offset="1" stop-color="#A1EFD5" stop-opacity="0"/>
</linearGradient>
<linearGradient id="paint1_linear_885_371" x1="141.653" y1="93.2422" x2="141.653" y2="265.75" gradientUnits="userSpaceOnUse">
<stop stop-color="#4EDFCC"/>
<stop offset="1" stop-color="white"/>
</linearGradient>
<linearGradient id="paint2_linear_885_371" x1="25.0579" y1="140.786" x2="147.215" y2="262.943" gradientUnits="userSpaceOnUse">
<stop stop-color="#4EDFCC"/>
<stop offset="1" stop-color="white"/>
</linearGradient>
</defs>
</svg>
